{
 "cells": [
  {
   "cell_type": "code",
   "execution_count": 2,
   "metadata": {},
   "outputs": [],
   "source": [
    "import transcribator"
   ]
  },
  {
   "cell_type": "code",
   "execution_count": 3,
   "metadata": {},
   "outputs": [],
   "source": [
    "tr = transcribator.Transcribator()"
   ]
  },
  {
   "cell_type": "code",
   "execution_count": 7,
   "metadata": {},
   "outputs": [
    {
     "name": "stderr",
     "output_type": "stream",
     "text": [
      "ffmpeg version 5.1.2-3ubuntu1 Copyright (c) 2000-2022 the FFmpeg developers\n",
      "  built with gcc 12 (Ubuntu 12.2.0-14ubuntu2)\n",
      "  configuration: --prefix=/usr --extra-version=3ubuntu1 --toolchain=hardened --libdir=/usr/lib/x86_64-linux-gnu --incdir=/usr/include/x86_64-linux-gnu --arch=amd64 --enable-gpl --disable-stripping --enable-gnutls --enable-ladspa --enable-libaom --enable-libass --enable-libbluray --enable-libbs2b --enable-libcaca --enable-libcdio --enable-libcodec2 --enable-libdav1d --enable-libflite --enable-libfontconfig --enable-libfreetype --enable-libfribidi --enable-libglslang --enable-libgme --enable-libgsm --enable-libjack --enable-libmp3lame --enable-libmysofa --enable-libopenjpeg --enable-libopenmpt --enable-libopus --enable-libpulse --enable-librabbitmq --enable-librist --enable-librubberband --enable-libshine --enable-libsnappy --enable-libsoxr --enable-libspeex --enable-libsrt --enable-libssh --enable-libsvtav1 --enable-libtheora --enable-libtwolame --enable-libvidstab --enable-libvorbis --enable-libvpx --enable-libwebp --enable-libx265 --enable-libxml2 --enable-libxvid --enable-libzimg --enable-libzmq --enable-libzvbi --enable-lv2 --enable-omx --enable-openal --enable-opencl --enable-opengl --enable-sdl2 --disable-sndio --enable-libjxl --enable-pocketsphinx --enable-librsvg --enable-libmfx --enable-libdc1394 --enable-libdrm --enable-libiec61883 --enable-chromaprint --enable-frei0r --enable-libx264 --enable-libplacebo --enable-librav1e --enable-shared\n",
      "  libavutil      57. 28.100 / 57. 28.100\n",
      "  libavcodec     59. 37.100 / 59. 37.100\n",
      "  libavformat    59. 27.100 / 59. 27.100\n",
      "  libavdevice    59.  7.100 / 59.  7.100\n",
      "  libavfilter     8. 44.100 /  8. 44.100\n",
      "  libswscale      6.  7.100 /  6.  7.100\n",
      "  libswresample   4.  7.100 /  4.  7.100\n",
      "  libpostproc    56.  6.100 / 56.  6.100\n",
      "[ogg @ 0x5558ec536040] 727 bytes of comment header remain\n",
      "Input #0, ogg, from './audio/voice_20-09-2024_10-08-18.ogx':\n",
      "  Duration: 00:00:14.56, start: 0.000000, bitrate: 165 kb/s\n",
      "  Stream #0:0: Audio: opus, 48000 Hz, mono, fltp\n",
      "Stream mapping:\n",
      "  Stream #0:0 -> #0:0 (opus (native) -> pcm_s16le (native))\n",
      "Press [q] to stop, [?] for help\n",
      "Output #0, wav, to './audio/tmp.wav':\n",
      "  Metadata:\n",
      "    ISFT            : Lavf59.27.100\n",
      "  Stream #0:0: Audio: pcm_s16le ([1][0][0][0] / 0x0001), 48000 Hz, mono, s16, 768 kb/s\n",
      "    Metadata:\n",
      "      encoder         : Lavc59.37.100 pcm_s16le\n",
      "size=    1364kB time=00:00:14.55 bitrate= 768.0kbits/s speed= 474x        \n",
      "video:0kB audio:1364kB subtitle:0kB other streams:0kB global headers:0kB muxing overhead: 0.005583%\n"
     ]
    },
    {
     "data": {
      "text/plain": [
       "['запланируй',\n",
       " 'собрание',\n",
       " 'место',\n",
       " 'главный',\n",
       " 'Холл',\n",
       " 'время',\n",
       " '18:00',\n",
       " 'дата',\n",
       " '22',\n",
       " 'сентября',\n",
       " '2024']"
      ]
     },
     "execution_count": 7,
     "metadata": {},
     "output_type": "execute_result"
    }
   ],
   "source": [
    "text = tr.transcribe(\"voice_20-09-2024_10-08-18.ogx\")\n",
    "text"
   ]
  },
  {
   "cell_type": "code",
   "execution_count": 8,
   "metadata": {},
   "outputs": [
    {
     "data": {
      "text/plain": [
       "{'event_type': 'собрание',\n",
       " 'place': 'главный',\n",
       " 'datetime': datetime.datetime(2024, 9, 22, 18, 0)}"
      ]
     },
     "execution_count": 8,
     "metadata": {},
     "output_type": "execute_result"
    }
   ],
   "source": [
    "tr.events_type_recognize(text)"
   ]
  }
 ],
 "metadata": {
  "kernelspec": {
   "display_name": "Python 3",
   "language": "python",
   "name": "python3"
  },
  "language_info": {
   "codemirror_mode": {
    "name": "ipython",
    "version": 3
   },
   "file_extension": ".py",
   "mimetype": "text/x-python",
   "name": "python",
   "nbconvert_exporter": "python",
   "pygments_lexer": "ipython3",
   "version": "3.11.5"
  }
 },
 "nbformat": 4,
 "nbformat_minor": 2
}
